<?xml version="1.0" standalone="no"?>
<!DOCTYPE svg PUBLIC "-//W3C//DTD SVG 20010904//EN"
 "http://www.w3.org/TR/2001/REC-SVG-20010904/DTD/svg10.dtd">
<svg version="1.0" xmlns="http://www.w3.org/2000/svg"
 width="96.000000pt" height="96.000000pt" viewBox="0 0 96.000000 96.000000"
 preserveAspectRatio="xMidYMid meet">
<metadata>
Created by potrace 1.14, written by Peter Selinger 2001-2017
</metadata>
<g transform="translate(0.000000,96.000000) scale(0.100000,-0.100000)"
fill="#000000" stroke="none">
<path d="M0 480 l0 -480 480 0 480 0 0 480 0 480 -480 0 -480 0 0 -480z m264
230 c66 -25 50 -110 -19 -110 -32 0 -35 -2 -35 -30 0 -23 -4 -30 -20 -30 -18
0 -20 7 -20 83 0 46 3 87 7 90 9 10 58 8 87 -3z m104 -68 l3 -72 34 0 c24 0
35 -5 35 -15 0 -12 -13 -15 -55 -15 l-55 0 0 91 c0 81 2 90 18 87 14 -3 18
-16 20 -76z m199 66 c6 -7 22 -48 36 -90 25 -77 25 -78 5 -78 -11 0 -22 8 -25
20 -4 15 -14 20 -38 20 -24 0 -34 -5 -38 -20 -3 -12 -14 -20 -25 -20 -20 0
-20 3 10 90 23 69 34 90 48 90 10 0 22 -6 27 -12z m114 -28 l23 -41 19 36 c17
35 42 54 54 42 3 -3 -9 -31 -26 -61 -17 -31 -31 -69 -31 -86 0 -23 -4 -30 -20
-30 -16 0 -20 7 -20 38 0 21 -11 54 -25 77 -28 46 -31 65 -11 65 8 0 25 -18
37 -40z m-423 -266 c24 -16 30 -44 10 -44 -7 0 -21 7 -31 15 -11 7 -25 11 -33
8 -26 -10 -14 -29 29 -43 35 -13 43 -20 45 -45 4 -35 -18 -55 -61 -55 -39 0
-67 17 -67 40 0 23 25 27 34 5 8 -23 56 -19 56 4 0 13 -10 21 -34 25 -19 4
-39 13 -46 21 -18 21 -8 58 20 72 33 17 51 16 78 -3z m90 -27 c3 -35 5 -37 38
-37 33 0 34 1 34 41 0 33 3 40 18 37 14 -3 17 -17 20 -91 3 -82 2 -87 -18 -87
-16 0 -20 6 -20 35 0 33 -2 35 -35 35 -33 0 -35 -2 -35 -35 0 -28 -4 -35 -20
-35 -19 0 -20 7 -20 91 0 81 2 90 18 87 12 -2 18 -14 20 -41z m265 23 c34 -27
44 -78 23 -118 -17 -32 -34 -42 -72 -42 -40 0 -62 18 -75 59 -14 46 2 88 41
108 35 18 53 16 83 -7z m151 10 c66 -25 50 -110 -19 -110 -32 0 -35 -2 -35
-30 0 -23 -4 -30 -20 -30 -18 0 -20 7 -20 83 0 46 3 87 7 90 9 10 58 8 87 -3z"/>
<path d="M210 655 c0 -23 4 -26 28 -23 38 4 38 42 0 46 -24 3 -28 0 -28 -23z"/>
<path d="M532 642 c-10 -29 -9 -32 9 -32 20 0 23 12 10 44 -7 18 -9 16 -19
-12z"/>
<path d="M529 366 c-23 -49 11 -97 55 -80 42 16 27 104 -19 104 -17 0 -29 -8
-36 -24z"/>
<path d="M710 365 c0 -23 4 -26 28 -23 38 4 38 42 0 46 -24 3 -28 0 -28 -23z"/>
</g>
</svg>
